PathFileType	4	(X/Y/Z)	Patient4_TMGait_0pt5_01_left_25.trc.trc
DataRate	CameraRate	NumFrames	NumMarkers	Units	OrigDataRate	OrigDataStartFrame	OrigNumFrames
73.684210526316	73.684210526316	4	33	mm	73.684210526316	71	       141
Frame#	Time	L.ASIS			Sacral			L.Shoulder			Chest			R.Shoulder			Neck			R.ASIS			R.Thigh.Superior			R.Thigh.Lateral			R.Thigh.Inferior			R.Patella			L.Thigh.Superior			L.Thigh.Lateral			L.Thigh.Inferior			L.Patella			L.Shank.Superior			L.Shank.Lateral			L.Shank.Inferior			R.Shank.Superior			R.Shank.Lateral			R.Shank.Inferior			R.Heel			R.Midfoot.Superior			R.Midfoot.Lateral			R.Toe			L.Heel			L.Midfoot.Lateral			L.Midfoot.Superior			L.Toe			L.Elbow			L.Wrist			R.Elbow			R.Wrist			
		X1	Y1	Z1	X2	Y2	Z2	X3	Y3	Z3	X4	Y4	Z4	X5	Y5	Z5	X6	Y6	Z6	X7	Y7	Z7	X8	Y8	Z8	X9	Y9	Z9	X10	Y10	Z10	X11	Y11	Z11	X12	Y12	Z12	X13	Y13	Z13	X14	Y14	Z14	X15	Y15	Z15	X16	Y16	Z16	X17	Y17	Z17	X18	Y18	Z18	X19	Y19	Z19	X20	Y20	Z20	X21	Y21	Z21	X22	Y22	Z22	X23	Y23	Z23	X24	Y24	Z24	X25	Y25	Z25	X26	Y26	Z26	X27	Y27	Z27	X28	Y28	Z28	X29	Y29	Z29	X30	Y30	Z30	X31	Y31	Z31	X32	Y32	Z32	X33	Y33	Z33	

71	34.350000000000	848.758664627403	958.539677548365	307.016547872805	620.219894328208	1008.380097464786	442.224954001453	822.716062686344	1428.163097823414	265.630764430999	902.446168639442	1364.236495790124	440.940025082331	797.960188294473	1446.348749584630	600.338667750645	805.890009811378	1495.214979255180	413.827240790627	834.854812253607	945.792328889888	582.497668083303	903.938585947409	767.844922955076	561.400035411929	853.509801131693	648.056910921303	631.471892476000	942.268753208665	605.802252993963	553.904101606341	973.696758535950	524.605917816184	569.654279765686	859.071946358443	736.619544788922	339.292661006977	752.065313436256	635.603362783444	275.346216680059	815.126974913468	547.089141290711	343.263295312021	802.132025356232	480.182224140323	354.520860900544	773.079218565720	411.906285829169	346.471454033215	677.463062098990	302.501449887895	295.041927182711	718.719241900696	191.084364366626	372.641237095513	961.742331487983	439.061026379972	579.647106851369	914.589636485995	324.597495692014	644.853429776061	986.557300432402	240.647796963861	592.835341767660	898.671051342815	52.354252688008	566.962717536929	1060.243283260829	126.560248715065	602.415647869321	985.287403697225	48.811339875868	637.222772781590	1186.888977613931	92.016266011688	625.349047923566	581.221747664475	38.764258222004	416.589754694574	655.674296891016	34.890090058083	336.471521410073	739.444335040853	95.195036059519	362.959773120822	867.611166411497	42.218643492413	337.036637819148	847.161085922559	1081.414425567651	130.817236553496	1071.692754589534	954.565784209301	164.523763232192	652.749298253928	1134.779680030994	708.298525707973	652.433188986685	872.073513708258	713.238685245511	
72	34.363571428571	848.702796245045	958.002799479781	308.697933295529	620.207897782417	1007.335188984623	443.616282339739	821.798056867855	1427.114172274798	266.776191065909	901.305672572525	1363.746732635871	442.352581144247	796.333196542386	1446.041388756548	601.351076947960	804.401571357574	1494.382233208208	414.737261058673	834.361083755029	944.680677070144	584.231518927411	903.285686056448	766.479284550996	563.261660169673	851.477967525030	645.974336982941	631.821580143158	940.928762735925	604.269526354111	555.003650796046	971.596866987969	523.204943162831	569.674832910296	856.559648523358	735.462621124687	340.669348627744	748.306369633672	635.649798938798	276.064772641429	809.942117159948	546.413230065963	344.041013869809	796.272185079679	479.705154574938	355.074991295713	767.046940639216	411.758482343767	346.829827988156	671.027185989366	302.715159699971	295.194186081383	712.062343380343	191.063484262198	372.718733919257	959.919125623110	437.286587645898	579.158228164044	912.719308262628	322.528669801597	643.568262187707	984.888472906229	238.960875452972	591.379603548289	896.985507519451	51.502951546612	564.546366040950	1058.855718448855	124.385921635834	600.349600595069	983.400375831864	47.292445010966	634.902511481826	1185.146329037505	88.963264844940	623.288205278743	574.363545631743	38.771137442453	416.590454756397	648.797131662633	34.902967886844	336.464574029709	732.564726788933	95.203650899651	362.949784200319	860.698064030772	42.230554872441	337.052100407993	848.982178521866	1080.087848390102	133.342451061918	1075.750314534943	957.465002951001	166.920525485087	652.269172267126	1134.118591679003	709.836696038917	654.982426584509	871.442467419761	715.324019210879	
73	34.377142857143	848.777170709234	957.412267172516	310.457800045737	620.414302996239	1006.129534779079	445.286029305496	820.809646331883	1426.024733531440	268.147569563694	900.196528275908	1363.239367575404	443.950109388215	794.703308483875	1445.596090825061	602.589746534880	802.838344529784	1493.467063013409	415.887039564487	834.234760640249	943.446978199015	586.028656871555	903.251312741500	765.090858688295	565.000408581307	850.082498356261	643.842618407756	631.943227291185	940.190967059938	602.766955344727	555.858875627842	969.941380827369	521.495137919949	569.484184051477	854.233737050066	734.236438932817	341.969541005740	744.674926991816	635.653077179062	276.848731808812	804.978905652863	545.688747468846	344.801076950181	790.662312674945	479.124275597506	355.648271766540	761.208378800804	411.535002497152	347.220979542756	664.682872051317	302.924658486358	295.409217511395	705.443239559855	190.986817619838	372.803555317207	958.041359767839	435.002955803793	578.447680024352	909.973998113805	320.251093649820	641.984325842431	981.736398477636	236.610445637817	589.631157766981	892.562994732552	50.546805754685	561.889448925140	1055.078497715513	121.498627657242	598.037959470714	978.695001769255	45.570002092757	632.530910535626	1180.816703338260	84.646655523018	621.209915375528	567.494884618612	38.718812396652	416.583179981995	641.915770120159	34.883571817281	336.456442427921	725.661609835405	95.203400662078	362.946307146344	853.787290517312	42.233248468673	337.065272857389	850.503400810184	1078.765645636978	135.983533909727	1079.226907004540	959.978760425918	169.415882849945	652.165022477599	1133.157066207310	711.742377071544	658.722862090391	870.600999097564	717.912641158578	
74	34.390714285714	848.968848716226	956.769527704412	312.284944193276	620.814353012005	1004.781169571069	447.228288426255	819.740278148489	1424.898440793471	269.757401089230	899.134191658543	1362.713050337451	445.736949671731	793.100901853061	1445.003967890166	604.076917506672	801.223728164201	1492.477377261904	417.297025077760	834.487627208507	942.088082680872	587.866768493225	903.765818847381	763.615294920779	566.555780145965	849.247302956896	641.684427172782	631.867471692069	939.924480965685	601.247484140544	556.440835048983	968.597274539747	519.475935198257	569.058723333420	852.164025198568	732.949042063202	343.153052143126	741.242439079173	635.590391108925	277.712932322797	800.344379511529	544.902916610067	345.550135677275	785.429794204562	478.404182930636	356.255537775856	755.661779823521	411.197243727387	347.667202373230	658.494117375045	303.119945322257	295.712226385152	698.893828815177	190.831409622064	372.911738233266	956.093968099355	432.276868756582	577.550931973556	906.536076035090	317.769557203222	640.204491108436	977.391090252572	233.685589603488	587.661662257352	885.941782321398	49.428337599517	559.168829658485	1049.374778936564	118.089848595948	595.538701430331	971.762643495974	43.719828338626	630.220573644097	1174.434640856877	79.436337997860	619.082810161422	560.610435552327	38.595789526345	416.565230034493	635.032021523243	34.818313544017	336.449619276431	718.737957478833	95.189892768598	362.953095669256	846.889190038209	42.218465811875	337.075650990215	851.710299633037	1077.458295368309	138.698935117409	1082.109740865578	962.071354112922	171.986753406853	652.393540995644	1131.918280232113	713.995826278382	663.535641557555	869.597341980330	720.980367268284	
